<?xml version="1.0" standalone="no"?>
<!DOCTYPE svg PUBLIC "-//W3C//DTD SVG 20010904//EN"
 "http://www.w3.org/TR/2001/REC-SVG-20010904/DTD/svg10.dtd">
<svg version="1.0" xmlns="http://www.w3.org/2000/svg"
 width="1000.000000pt" height="1000.000000pt" viewBox="0 0 1000.000000 1000.000000"
 preserveAspectRatio="xMidYMid meet">
<metadata>
Created by potrace 1.11, written by Peter Selinger 2001-2013
</metadata>
<g transform="translate(0.000000,1000.000000) scale(0.100000,-0.100000)"
fill="#000000" stroke="none">
<path d="M4517 8295 c-1 -2 -54 -5 -117 -9 -63 -4 -126 -8 -140 -10 -14 -2
-48 -7 -75 -10 -48 -6 -133 -21 -185 -31 -14 -3 -38 -8 -55 -10 -65 -12 -300
-77 -397 -111 -751 -261 -1385 -789 -1782 -1482 -39 -70 -79 -143 -88 -162
-107 -231 -114 -248 -170 -410 -34 -98 -85 -286 -102 -370 -9 -48 -26 -135
-30 -155 -2 -11 -7 -45 -11 -75 -3 -30 -8 -66 -10 -80 -24 -171 -25 -629 -1
-757 2 -10 7 -43 10 -74 4 -31 9 -67 12 -80 2 -13 7 -40 10 -59 52 -332 239
-829 419 -1110 13 -19 44 -69 71 -110 178 -279 446 -568 744 -803 202 -160
498 -330 749 -431 132 -54 144 -58 156 -62 6 -2 67 -21 138 -43 70 -23 137
-43 150 -45 12 -3 67 -14 122 -26 55 -12 109 -23 120 -25 42 -8 102 -16 140
-21 22 -3 51 -7 65 -9 126 -22 615 -23 737 -1 10 2 41 7 68 10 69 10 106 16
135 21 14 3 41 7 60 10 165 27 482 126 680 212 253 110 560 293 726 432 17 14
52 44 79 66 78 64 152 133 249 233 98 100 98 100 121 267 3 22 10 66 16 99 6
32 9 60 7 62 -2 2 -26 -4 -53 -12 -144 -44 -342 5 -456 112 l-26 25 -25 -33
c-56 -74 -228 -232 -364 -334 -98 -74 -99 -74 -189 -132 -297 -189 -712 -337
-1055 -377 -30 -3 -73 -9 -95 -12 -64 -9 -373 -10 -455 -2 -154 15 -205 21
-210 24 -3 2 -26 6 -50 10 -133 19 -373 90 -550 162 -641 264 -1171 802 -1430
1453 -134 336 -190 648 -184 1020 1 107 5 206 7 220 2 14 8 54 11 90 4 36 12
84 17 108 5 23 12 59 15 78 10 65 72 279 109 380 263 707 834 1284 1535 1549
152 58 403 124 530 140 30 4 66 9 80 11 135 19 408 24 555 11 331 -30 646
-119 938 -263 115 -57 280 -153 285 -166 2 -4 8 -8 13 -8 5 0 53 -33 105 -72
53 -40 102 -77 109 -82 9 -7 32 -1 71 16 97 43 181 65 293 77 188 19 368 -16
545 -106 l30 -15 -33 41 c-18 22 -70 83 -115 133 -360 404 -783 699 -1278 892
-122 48 -342 116 -428 132 -14 3 -41 9 -60 14 -34 9 -48 12 -120 24 -72 12
-109 18 -215 31 -105 13 -467 28 -478 20z"/>
<path d="M4518 7355 c-2 -1 -43 -5 -93 -9 -432 -29 -888 -209 -1255 -494 -80
-62 -268 -242 -337 -323 -168 -196 -330 -475 -418 -719 -100 -277 -139 -504
-140 -805 0 -287 33 -496 122 -765 167 -505 544 -975 1007 -1254 364 -220 764
-335 1188 -340 651 -9 1250 234 1708 694 116 117 172 187 167 207 -3 10 -8 54
-11 98 -3 44 -9 118 -13 165 -3 47 -6 95 -6 108 -1 12 -3 22 -6 22 -4 -1 -32
-41 -63 -90 -95 -146 -255 -331 -369 -425 -13 -11 -47 -38 -74 -61 -127 -104
-328 -222 -499 -293 -89 -37 -260 -92 -326 -105 -14 -2 -50 -10 -80 -16 -165
-34 -466 -46 -615 -26 -27 4 -66 9 -85 12 -188 25 -442 105 -619 193 -271 137
-542 358 -711 581 -36 47 -67 87 -70 90 -17 15 -108 169 -154 260 -97 190
-167 407 -201 620 -27 173 -27 475 0 635 42 245 103 434 208 639 353 692 1083
1137 1857 1130 118 -1 242 -8 290 -18 8 -1 38 -6 65 -11 140 -22 347 -85 484
-147 155 -70 351 -185 421 -247 24 -22 25 -22 38 -4 54 77 117 159 124 161 5
2 13 12 18 22 8 15 -5 28 -87 86 -54 38 -106 74 -118 80 -11 6 -49 28 -85 49
-230 131 -519 232 -777 271 -21 3 -49 7 -62 9 -79 13 -412 29 -423 20z"/>
<path d="M6718 6805 c-2 -2 -23 -5 -48 -8 -250 -33 -462 -227 -524 -482 -15
-62 -24 -225 -12 -243 2 -4 7 -24 10 -45 9 -54 49 -147 89 -209 84 -126 212
-220 358 -262 39 -12 55 -21 55 -34 1 -23 13 -195 19 -257 3 -27 7 -86 10
-130 11 -157 15 -211 20 -272 3 -35 7 -91 10 -125 2 -35 7 -92 10 -128 3 -36
7 -101 10 -145 3 -44 7 -100 10 -125 2 -25 7 -90 10 -145 3 -55 8 -116 10
-135 2 -19 6 -75 10 -125 3 -49 8 -108 10 -130 2 -22 7 -85 10 -140 5 -85 10
-107 33 -144 59 -96 182 -113 263 -35 44 42 52 80 44 207 -3 62 -8 128 -10
147 -2 19 -6 78 -9 130 -4 52 -9 113 -11 135 -5 38 -8 80 -20 270 -3 44 -7 98
-10 120 -2 22 -7 83 -10 135 -3 52 -8 115 -10 140 -5 51 -12 147 -20 270 -3
47 -8 101 -10 120 -2 19 -7 82 -11 140 -3 57 -8 112 -9 122 -6 28 -9 148 -4
151 2 2 35 18 74 37 142 68 271 234 314 401 89 350 -133 708 -484 779 -52 11
-171 20 -177 15z m172 -362 c148 -69 215 -250 147 -395 -110 -235 -435 -236
-547 -1 -35 73 -33 179 4 253 39 78 105 135 186 161 45 15 162 4 210 -18z"/>
<path d="M7500 5671 c-45 -23 -87 -85 -95 -136 -3 -22 -15 -92 -26 -155 -22
-119 -29 -255 -17 -325 30 -177 150 -348 306 -437 l53 -30 -6 -42 c-4 -22 -22
-133 -41 -246 -19 -113 -37 -216 -39 -230 -2 -14 -14 -79 -25 -145 -12 -66
-23 -136 -26 -155 -2 -19 -7 -46 -9 -60 -5 -25 -33 -183 -40 -230 -7 -40 -85
-503 -90 -530 -3 -14 -12 -68 -21 -120 -8 -52 -18 -108 -21 -125 -12 -57 -7
-110 12 -150 51 -103 186 -123 269 -40 34 34 53 91 70 215 4 27 90 533 110
650 3 14 7 43 11 65 3 22 7 47 10 55 2 8 6 31 9 50 2 19 9 62 15 95 6 33 13
76 16 95 3 19 8 48 11 63 3 16 7 38 9 50 10 82 109 646 116 665 6 15 17 22 36
22 41 1 156 44 220 82 117 70 222 198 270 329 18 48 41 156 59 274 3 22 9 56
13 75 24 111 -24 201 -123 228 -100 28 -192 -38 -211 -151 -10 -56 -18 -101
-22 -122 -5 -29 -14 -84 -17 -109 -13 -94 -68 -187 -135 -229 l-34 -21 7 46
c11 73 16 101 26 148 5 25 12 67 15 94 3 27 8 52 10 56 2 3 6 24 9 46 2 21 7
50 11 64 12 48 13 123 1 150 -60 139 -243 150 -311 19 -12 -22 -36 -142 -51
-254 -2 -16 -6 -37 -9 -45 -3 -8 -7 -37 -10 -63 -8 -66 -32 -187 -38 -194 -10
-9 -60 77 -72 125 -16 59 -14 87 20 282 22 131 24 161 15 197 -29 100 -149
153 -240 104z"/>
</g>
</svg>
