<svg xmlns="http://www.w3.org/2000/svg" viewBox="30 120 240 60" class="iconLeft"><path fill="transparent" class="logo-background-square" d="M0 0h300v300H0z"/><path d="M136.371 158.924h-3.514l-2.335-18.6-6.677 12.776-6.802-12.802-2.335 18.626h-3.514l3.313-24.6h2.837l6.476 12.2 6.401-12.2h2.862l3.288 24.6zm11.347.351q-2.636 0-4.57-1.18-1.932-1.18-2.961-3.213-1.004-2.033-1.004-4.568 0-2.536 1.004-4.569 1.029-2.033 2.962-3.213 1.933-1.18 4.569-1.18 2.585 0 4.543 1.18 1.958 1.18 2.962 3.213 1.03 2.033 1.03 4.569 0 2.535-1.03 4.568-1.004 2.034-2.962 3.213-1.958 1.18-4.543 1.18zm0-2.811q2.535 0 3.915-1.607 1.381-1.631 1.381-4.543t-1.38-4.544q-1.381-1.606-3.916-1.606-2.536 0-3.916 1.606-1.406 1.632-1.406 4.544t1.406 4.543q1.38 1.607 3.916 1.607zm11.798 2.46v-17.22h2.61l.377 2.836q1.33-1.631 2.56-2.41 1.205-.778 2.536-.778.426 0 .803.1l-.301 3.49q-.452-.1-1.055-.1-1.305 0-2.46.577-1.154.577-1.682 1.355v12.15h-3.388zm19.379.351q-2.963 0-5.046-1.205-2.109-1.23-3.188-3.288-1.08-2.084-1.08-4.619 0-2.41.98-4.443 1.004-2.008 2.937-3.188 1.907-1.18 4.518-1.18 3.288 0 5.347 1.933 2.058 1.933 2.058 5.347 0 .879-.15 1.682h-12.476q.326 3.338 2.058 4.744 1.707 1.406 4.418 1.406 2.711 0 4.945-1.03l.427 2.51q-2.987 1.331-5.748 1.331zm-5.8-11.145h9.063q0-1.858-1.054-2.912-1.055-1.054-3.163-1.054-2.034 0-3.213 1.004-1.155 1.004-1.632 2.962zm24.275-6.778q2.284 0 3.991 1.18 1.707 1.18 2.61 3.213.93 2.033.93 4.569 0 2.56-.88 4.593-.853 2.009-2.534 3.188-1.682 1.18-4.117 1.18-1.782 0-3.263-.627-1.482-.628-2.335-1.833v10.619h-3.163v-25.73h2.46l.352 2.384q2.183-2.736 5.949-2.736zm-.603 15.112q2.285 0 3.59-1.632 1.305-1.631 1.305-4.518 0-2.887-1.305-4.519-1.305-1.631-3.59-1.631-2.234 0-3.715 1.581-1.456 1.582-1.456 4.569 0 3.087 1.456 4.619 1.431 1.53 3.715 1.53zm15.865 2.811q-2.335 0-3.389-1.205-1.08-1.18-1.08-2.937v-22.567h3.164v20.735q0 1.556.175 2.26.201.702.779.928.552.251 1.807.251l-.452 2.535h-1.004zm7.857 0q-2.385 0-3.84-1.405-1.457-1.406-1.457-3.59 0-3.263 3.088-4.67 3.088-1.405 7.204-1.48 0-2.31-.903-3.138-.879-.828-2.862-.828-1.08 0-2.184.326-1.08.351-2.334 1.23l-.477-2.585q1.054-.804 2.61-1.28 1.557-.503 3.239-.503 2.209 0 3.539.778 1.305.779 1.933 2.56.602 1.783.602 4.92v3.515q0 1.406.126 2.134.125.703.552 1.104.402.377 1.28.377h.327l-.502 2.535h-.226q-1.481 0-2.335-.276-.828-.276-1.28-.803-.427-.527-.829-1.456-2.183 2.535-5.271 2.535zm.602-2.535q1.256 0 2.435-.628 1.18-.627 1.958-1.681v-4.117q-3.79.15-5.422 1.004-1.631.853-1.631 2.786 0 1.33.702 1.983.728.653 1.958.653zm18.2 2.535q-2.285 0-3.39-1.205-1.104-1.18-1.104-2.911v-10.995h-2.962l.301-2.46h2.661v-4.243l3.163-.326v4.569h4.544v2.46h-4.544v9.062q0 1.807.201 2.46.226.677.904.853.677.201 2.51.201h.803l-.226 2.535h-2.861zm14.157 0q-2.937 0-5.02-1.205-2.109-1.23-3.188-3.288-1.105-2.084-1.105-4.619 0-2.41 1.004-4.443 1.005-2.008 2.937-3.188 1.908-1.18 4.494-1.18 3.313 0 5.372 1.933 2.058 1.933 2.058 5.347 0 .879-.15 1.682h-12.476q.326 3.338 2.033 4.744 1.732 1.406 4.443 1.406 2.711 0 4.945-1.03l.427 2.51q-2.987 1.331-5.774 1.331zm-5.798-11.145h9.087q0-1.858-1.055-2.912-1.054-1.054-3.162-1.054-2.059 0-3.214 1.004-1.154 1.004-1.656 2.962z"/><defs><linearGradient gradientTransform="rotate(25)" id="a" x1="0%" y1="0%" x2="100%" y2="0%"><stop offset="0%" stop-color="#5106FF"/><stop offset="100%" stop-color="#61CBF2"/></linearGradient></defs><g fill="url(#a)" transform="translate(25.514 106.417) scale(.87168)"><path d="M71.841 38.928a5.805 5.805 0 00-6.217-5.347 5.808 5.808 0 00-5.348 6.218 5.803 5.803 0 004.693 5.262l1.335 17.752a1.564 1.564 0 001.669 1.424 1.537 1.537 0 001.064-.541c.271-.316.401-.717.367-1.127l-1.341-17.768a5.817 5.817 0 003.778-5.873zm-5.99-2.319a2.748 2.748 0 012.944 2.53 2.747 2.747 0 01-2.531 2.942 2.746 2.746 0 01-2.943-2.53 2.746 2.746 0 012.53-2.942zm16.234 8.541a1.548 1.548 0 00-1.165.269c-.339.242-.562.6-.628 1.005l-.422 2.49c-.16.941-.709 1.661-1.49 2l.795-4.687a1.561 1.561 0 00-1.274-1.787 1.551 1.551 0 00-1.792 1.274l-.793 4.681c-.627-.578-.909-1.438-.748-2.379l.425-2.5a1.563 1.563 0 00-1.276-1.784 1.542 1.542 0 00-1.164.268 1.534 1.534 0 00-.628 1.006l-.425 2.509a5.801 5.801 0 003.288 6.237l-2.979 17.551a1.564 1.564 0 001.276 1.784c.411.069.824-.026 1.164-.269.339-.242.562-.6.628-1.005l2.977-17.569c2.544-.28 4.648-2.245 5.082-4.811l.424-2.496a1.563 1.563 0 00-1.275-1.787z"/><path d="M63.314 63.039l-.265-3.517a19.007 19.007 0 01-2.99 3.92c-7.423 7.423-19.458 7.423-26.88 0-7.424-7.425-7.424-19.459 0-26.881 6.887-6.888 17.74-7.373 25.2-1.478a8.896 8.896 0 011.485-1.953c-8.423-6.628-20.655-6.073-28.421 1.694-8.382 8.381-8.382 21.969 0 30.352 8.38 8.381 21.97 8.381 30.352 0a21.825 21.825 0 001.584-1.78c-.02-.12-.054-.234-.065-.357z"/><path d="M69.512 66.91a4.51 4.51 0 01-1.312.319 4.914 4.914 0 01-.343.013c-1.257 0-2.402-.537-3.235-1.391-.336.38-.659.768-1.022 1.131-9.379 9.378-24.585 9.378-33.963 0-9.379-9.38-9.379-24.584 0-33.963 8.861-8.861 22.919-9.338 32.354-1.453a8.76 8.76 0 014.073-1.002c1.575 0 3.06.432 4.35 1.174a30.39 30.39 0 00-2.581-2.953c-11.716-11.715-30.712-11.715-42.427 0-11.716 11.716-11.716 30.711 0 42.428 11.715 11.715 30.711 11.714 42.427-.001.4-.4.784-.811 1.157-1.227l.522-3.075z"/></g></svg>