<svg data-v-fde0c5aa="" xmlns="http://www.w3.org/2000/svg" viewBox="30 120 240 60" class="iconLeft"><!----><defs data-v-fde0c5aa=""><!----></defs><rect data-v-fde0c5aa="" fill="transparent" x="0" y="0" width="300px" height="300px" class="logo-background-square"></rect><defs data-v-fde0c5aa=""><!----></defs><g data-v-fde0c5aa="" id="99b9b353-d644-47b9-b767-dbd635d77a4d" fill="#000000" transform="matrix(2.510227415147711,0,0,2.510227415147711,109.51185990848559,125.01068687220456)"><path d="M10.70 13.51L9.30 13.51L8.37 6.10L5.71 11.19L3.00 6.09L2.07 13.51L0.67 13.51L1.99 3.71L3.12 3.71L5.70 8.57L8.25 3.71L9.39 3.71L10.70 13.51ZM15.22 13.65L15.22 13.65Q14.17 13.65 13.40 13.18L13.40 13.18L13.40 13.18Q12.63 12.71 12.22 11.90L12.22 11.90L12.22 11.90Q11.82 11.09 11.82 10.08L11.82 10.08L11.82 10.08Q11.82 9.07 12.22 8.26L12.22 8.26L12.22 8.26Q12.63 7.45 13.40 6.98L13.40 6.98L13.40 6.98Q14.17 6.51 15.22 6.51L15.22 6.51L15.22 6.51Q16.25 6.51 17.03 6.98L17.03 6.98L17.03 6.98Q17.81 7.45 18.21 8.26L18.21 8.26L18.21 8.26Q18.62 9.07 18.62 10.08L18.62 10.08L18.62 10.08Q18.62 11.09 18.21 11.90L18.21 11.90L18.21 11.90Q17.81 12.71 17.03 13.18L17.03 13.18L17.03 13.18Q16.25 13.65 15.22 13.65L15.22 13.65ZM15.22 12.53L15.22 12.53Q16.23 12.53 16.78 11.89L16.78 11.89L16.78 11.89Q17.33 11.24 17.33 10.08L17.33 10.08L17.33 10.08Q17.33 8.92 16.78 8.27L16.78 8.27L16.78 8.27Q16.23 7.63 15.22 7.63L15.22 7.63L15.22 7.63Q14.21 7.63 13.66 8.27L13.66 8.27L13.66 8.27Q13.10 8.92 13.10 10.08L13.10 10.08L13.10 10.08Q13.10 11.24 13.66 11.89L13.66 11.89L13.66 11.89Q14.21 12.53 15.22 12.53L15.22 12.53ZM19.92 13.51L19.92 6.65L20.96 6.65L21.11 7.78L21.11 7.78Q21.64 7.13 22.13 6.82L22.13 6.82L22.13 6.82Q22.61 6.51 23.14 6.51L23.14 6.51L23.14 6.51Q23.31 6.51 23.46 6.55L23.46 6.55L23.34 7.94L23.34 7.94Q23.16 7.90 22.92 7.90L22.92 7.90L22.92 7.90Q22.40 7.90 21.94 8.13L21.94 8.13L21.94 8.13Q21.48 8.36 21.27 8.67L21.27 8.67L21.27 13.51L19.92 13.51ZM27.64 13.65L27.64 13.65Q26.46 13.65 25.63 13.17L25.63 13.17L25.63 13.17Q24.79 12.68 24.36 11.86L24.36 11.86L24.36 11.86Q23.93 11.03 23.93 10.02L23.93 10.02L23.93 10.02Q23.93 9.06 24.32 8.25L24.32 8.25L24.32 8.25Q24.72 7.45 25.49 6.98L25.49 6.98L25.49 6.98Q26.25 6.51 27.29 6.51L27.29 6.51L27.29 6.51Q28.60 6.51 29.42 7.28L29.42 7.28L29.42 7.28Q30.24 8.05 30.24 9.41L30.24 9.41L30.24 9.41Q30.24 9.76 30.18 10.08L30.18 10.08L25.21 10.08L25.21 10.08Q25.34 11.41 26.03 11.97L26.03 11.97L26.03 11.97Q26.71 12.53 27.79 12.53L27.79 12.53L27.79 12.53Q28.87 12.53 29.76 12.12L29.76 12.12L29.93 13.12L29.93 13.12Q28.74 13.65 27.64 13.65L27.64 13.65ZM25.33 9.21L28.94 9.21L28.94 9.21Q28.94 8.47 28.52 8.05L28.52 8.05L28.52 8.05Q28.10 7.63 27.26 7.63L27.26 7.63L27.26 7.63Q26.45 7.63 25.98 8.03L25.98 8.03L25.98 8.03Q25.52 8.43 25.33 9.21L25.33 9.21ZM35 6.51L35 6.51Q35.91 6.51 36.59 6.98L36.59 6.98L36.59 6.98Q37.27 7.45 37.63 8.26L37.63 8.26L37.63 8.26Q38.00 9.07 38.00 10.08L38.00 10.08L38.00 10.08Q38.00 11.10 37.65 11.91L37.65 11.91L37.65 11.91Q37.31 12.71 36.64 13.18L36.64 13.18L36.64 13.18Q35.97 13.65 35 13.65L35 13.65L35 13.65Q34.29 13.65 33.70 13.40L33.70 13.40L33.70 13.40Q33.11 13.15 32.77 12.67L32.77 12.67L32.77 16.90L31.51 16.90L31.51 6.65L32.49 6.65L32.63 7.60L32.63 7.60Q33.50 6.51 35 6.51L35 6.51ZM34.76 12.53L34.76 12.53Q35.67 12.53 36.19 11.88L36.19 11.88L36.19 11.88Q36.71 11.23 36.71 10.08L36.71 10.08L36.71 10.08Q36.71 8.93 36.19 8.28L36.19 8.28L36.19 8.28Q35.67 7.63 34.76 7.63L34.76 7.63L34.76 7.63Q33.87 7.63 33.28 8.26L33.28 8.26L33.28 8.26Q32.70 8.89 32.70 10.08L32.70 10.08L32.70 10.08Q32.70 11.31 33.28 11.92L33.28 11.92L33.28 11.92Q33.85 12.53 34.76 12.53L34.76 12.53ZM41.08 13.65L41.08 13.65Q40.15 13.65 39.73 13.17L39.73 13.17L39.73 13.17Q39.30 12.70 39.30 12.00L39.30 12.00L39.30 3.01L40.56 3.01L40.56 11.27L40.56 11.27Q40.56 11.89 40.63 12.17L40.63 12.17L40.63 12.17Q40.71 12.45 40.94 12.54L40.94 12.54L40.94 12.54Q41.16 12.64 41.66 12.64L41.66 12.64L41.48 13.65L41.08 13.65ZM44.21 13.65L44.21 13.65Q43.26 13.65 42.68 13.09L42.68 13.09L42.68 13.09Q42.10 12.53 42.10 11.66L42.10 11.66L42.10 11.66Q42.10 10.36 43.33 9.80L43.33 9.80L43.33 9.80Q44.56 9.24 46.20 9.21L46.20 9.21L46.20 9.21Q46.20 8.29 45.84 7.96L45.84 7.96L45.84 7.96Q45.49 7.63 44.70 7.63L44.70 7.63L44.70 7.63Q44.27 7.63 43.83 7.76L43.83 7.76L43.83 7.76Q43.40 7.90 42.90 8.25L42.90 8.25L42.71 7.22L42.71 7.22Q43.13 6.90 43.75 6.71L43.75 6.71L43.75 6.71Q44.37 6.51 45.04 6.51L45.04 6.51L45.04 6.51Q45.92 6.51 46.45 6.82L46.45 6.82L46.45 6.82Q46.97 7.13 47.22 7.84L47.22 7.84L47.22 7.84Q47.46 8.55 47.46 9.80L47.46 9.80L47.46 11.20L47.46 11.20Q47.46 11.76 47.51 12.05L47.51 12.05L47.51 12.05Q47.56 12.33 47.73 12.49L47.73 12.49L47.73 12.49Q47.89 12.64 48.24 12.64L48.24 12.64L48.37 12.64L48.17 13.65L48.08 13.65L48.08 13.65Q47.49 13.65 47.15 13.54L47.15 13.54L47.15 13.54Q46.82 13.43 46.64 13.22L46.64 13.22L46.64 13.22Q46.47 13.01 46.31 12.64L46.31 12.64L46.31 12.64Q45.44 13.65 44.21 13.65L44.21 13.65ZM44.45 12.64L44.45 12.64Q44.95 12.64 45.42 12.39L45.42 12.39L45.42 12.39Q45.89 12.14 46.20 11.72L46.20 11.72L46.20 10.08L46.20 10.08Q44.69 10.14 44.04 10.48L44.04 10.48L44.04 10.48Q43.39 10.82 43.39 11.59L43.39 11.59L43.39 11.59Q43.39 12.12 43.67 12.38L43.67 12.38L43.67 12.38Q43.96 12.64 44.45 12.64L44.45 12.64ZM51.70 13.65L51.70 13.65Q50.79 13.65 50.35 13.17L50.35 13.17L50.35 13.17Q49.91 12.70 49.91 12.01L49.91 12.01L49.91 7.63L48.73 7.63L48.85 6.65L49.91 6.65L49.91 4.96L51.17 4.83L51.17 6.65L52.98 6.65L52.98 7.63L51.17 7.63L51.17 11.24L51.17 11.24Q51.17 11.96 51.25 12.22L51.25 12.22L51.25 12.22Q51.34 12.49 51.61 12.56L51.61 12.56L51.61 12.56Q51.88 12.64 52.61 12.64L52.61 12.64L52.93 12.64L52.84 13.65L51.70 13.65ZM57.34 13.65L57.34 13.65Q56.17 13.65 55.34 13.17L55.34 13.17L55.34 13.17Q54.50 12.68 54.07 11.86L54.07 11.86L54.07 11.86Q53.63 11.03 53.63 10.02L53.63 10.02L53.63 10.02Q53.63 9.06 54.03 8.25L54.03 8.25L54.03 8.25Q54.43 7.45 55.20 6.98L55.20 6.98L55.20 6.98Q55.96 6.51 56.99 6.51L56.99 6.51L56.99 6.51Q58.31 6.51 59.13 7.28L59.13 7.28L59.13 7.28Q59.95 8.05 59.95 9.41L59.95 9.41L59.95 9.41Q59.95 9.76 59.89 10.08L59.89 10.08L54.92 10.08L54.92 10.08Q55.05 11.41 55.73 11.97L55.73 11.97L55.73 11.97Q56.42 12.53 57.50 12.53L57.50 12.53L57.50 12.53Q58.58 12.53 59.47 12.12L59.47 12.12L59.64 13.12L59.64 13.12Q58.45 13.65 57.34 13.65L57.34 13.65ZM55.03 9.21L58.65 9.21L58.65 9.21Q58.65 8.47 58.23 8.05L58.23 8.05L58.23 8.05Q57.81 7.63 56.97 7.63L56.97 7.63L56.97 7.63Q56.15 7.63 55.69 8.03L55.69 8.03L55.69 8.03Q55.23 8.43 55.03 9.21L55.03 9.21Z"></path></g><defs data-v-fde0c5aa=""><linearGradient data-v-fde0c5aa="" gradientTransform="rotate(25)" id="61d27e3d-2e64-41bb-9c8d-5f9ddb0a8bc1" x1="0%" y1="0%" x2="100%" y2="0%"><stop data-v-fde0c5aa="" offset="0%" stop-color="#5106FF" stop-opacity="1"></stop><stop data-v-fde0c5aa="" offset="100%" stop-color="#61CBF2" stop-opacity="1"></stop></linearGradient></defs><g data-v-fde0c5aa="" id="56070c38-7c6b-4aea-afd3-2a64a5c54c40" stroke="none" fill="url(#61d27e3d-2e64-41bb-9c8d-5f9ddb0a8bc1)" transform="matrix(0.8716764316070119,0,0,0.8716764316070119,25.513606510166078,106.41726907924705)"><path d="M71.841 38.928a5.805 5.805 0 0 0-6.217-5.347 5.808 5.808 0 0 0-5.348 6.218 5.803 5.803 0 0 0 4.693 5.262l1.335 17.752a1.564 1.564 0 0 0 1.669 1.424 1.537 1.537 0 0 0 1.064-.541c.271-.316.401-.717.367-1.127l-1.341-17.768a5.817 5.817 0 0 0 3.778-5.873zm-5.99-2.319a2.748 2.748 0 0 1 2.944 2.53 2.747 2.747 0 0 1-2.531 2.942 2.746 2.746 0 0 1-2.943-2.53 2.746 2.746 0 0 1 2.53-2.942zM82.085 45.15a1.548 1.548 0 0 0-1.165.269c-.339.242-.562.6-.628 1.005l-.422 2.49c-.16.941-.709 1.661-1.49 2l.795-4.687a1.561 1.561 0 0 0-1.274-1.787 1.551 1.551 0 0 0-1.792 1.274l-.793 4.681c-.627-.578-.909-1.438-.748-2.379l.425-2.5a1.563 1.563 0 0 0-1.276-1.784 1.542 1.542 0 0 0-1.164.268 1.534 1.534 0 0 0-.628 1.006l-.425 2.509a5.801 5.801 0 0 0 3.288 6.237l-2.979 17.551a1.564 1.564 0 0 0 1.276 1.784c.411.069.824-.026 1.164-.269.339-.242.562-.6.628-1.005l2.977-17.569c2.544-.28 4.648-2.245 5.082-4.811l.424-2.496a1.563 1.563 0 0 0-1.275-1.787z"></path><path d="M63.314 63.039l-.265-3.517a19.007 19.007 0 0 1-2.99 3.92c-7.423 7.423-19.458 7.423-26.88 0-7.424-7.425-7.424-19.459 0-26.881 6.887-6.888 17.74-7.373 25.2-1.478a8.896 8.896 0 0 1 1.485-1.953c-8.423-6.628-20.655-6.073-28.421 1.694-8.382 8.381-8.382 21.969 0 30.352 8.38 8.381 21.97 8.381 30.352 0a21.825 21.825 0 0 0 1.584-1.78c-.02-.12-.054-.234-.065-.357z"></path><g><path d="M69.512 66.91a4.51 4.51 0 0 1-1.312.319 4.914 4.914 0 0 1-.343.013c-1.257 0-2.402-.537-3.235-1.391-.336.38-.659.768-1.022 1.131-9.379 9.378-24.585 9.378-33.963 0-9.379-9.38-9.379-24.584 0-33.963 8.861-8.861 22.919-9.338 32.354-1.453a8.76 8.76 0 0 1 4.073-1.002c1.575 0 3.06.432 4.35 1.174a30.39 30.39 0 0 0-2.581-2.953c-11.716-11.715-30.712-11.715-42.427 0-11.716 11.716-11.716 30.711 0 42.428 11.715 11.715 30.711 11.714 42.427-.001.4-.4.784-.811 1.157-1.227l.522-3.075z"></path></g></g><!----></svg>